<svg fill="none" height="967" viewbox="0 0 1433 967" width="1433" xmlns="http://www.w3.org/2000/svg">
<g id="FLOOR_1">
<g id="FLOOR_1_2">
<path d="M780.976 625L783 528H792H1021.5L1021.98 529V535H1024.98H1047.98L1041.98 776L990.976 774V772H987.976V774L937.976 772V769H934.976V772H930.976V774L885 771V767H881.976V769L830.976 767V765H827.976V767L776.976 765L779.976 664L743.976 663V655H742.976L743.476 632H745.976V624L780.976 625Z" fill="#FFC972" id="FLOOR_STAGE"></path>
<path d="M465.5 887V759.5L522 764.5V750L586 756.5V755L629 760V761L692 766.5V772H697.5L696.976 782L741 785L741.476 774.5L761 776V773L777 774V768L885 772V771L931 774V776L1042 779V785H1058V788L465.5 887Z" fill="#DF946C" id="ROOM_TERRASSE"></path>
<path d="M465.5 887V759.5L522.092 764.5V750L586 756.5V755L629 760V761L692 766.5V772H697.5L697 782L702.976 809L709 846.5L465.5 887Z" fill="#B3AAAA" id="ROOM_TERRASSE_2"></path>
<g id="WINDOWS">
<g id="WINDOW_MAIN_STAGE">
<path d="M776.476 768V765L827.976 767V765H830.976V767L881.976 769V767H885V772L776.476 768Z" fill="#819BDE"></path>
<path d="M930.976 776V772H934.976V769H937.976V772L987.976 774V772H990.976V774L1041.98 776V779L930.976 776Z" fill="#819BDE"></path>
</g>
<path d="M521.976 750V748L580.976 753L636.976 759L691.976 764V766.5L628.976 761L585.976 756.5L521.976 750Z" fill="#819BDE" id="WINDOW_LOUNGE"></path>
</g>
<g id="🪜 STAIRS">
<g id="STAIRS">
<path d="M934.476 589.502L935.476 568.502L1017.48 571.502V566.502L988.476 565.502V545.502L1037.48 546.502L1035.48 592.502L934.476 589.502Z" fill="#FBF4BC" id="Vector 205" stroke="#E957C4"></path>
<g id="STEPS">
<path d="M941.476 569.002L940.476 589.502" id="Line 63" stroke="#E957C4"></path>
<path d="M947.476 569.002L946.476 590.025" id="Line 64" stroke="#E957C4"></path>
<path d="M958.476 569.502L957.476 590.025" id="Line 66" stroke="#E957C4"></path>
<path d="M964.476 569.502L963.476 590.502" id="Line 67" stroke="#E957C4"></path>
<path d="M970.476 570.002L969.476 590.502" id="Line 68" stroke="#E957C4"></path>
<path d="M975.476 570.002L974.476 591.002" id="Line 69" stroke="#E957C4"></path>
<path d="M981.476 570.002L980.476 591.002" id="Line 70" stroke="#E957C4"></path>
<path d="M987.476 570.002L986.476 591.502" id="Line 71" stroke="#E957C4"></path>
<path d="M994.976 545.399L993.976 566" id="Line 75" stroke="#E957C4"></path>
<path d="M999.976 545.5L998.976 566" id="Line 76" stroke="#E957C4"></path>
<path d="M1005.98 545.5L1004.98 566.503" id="Line 77" stroke="#E957C4"></path>
<path d="M1011.98 545.5L1010.98 566.503" id="Line 78" stroke="#E957C4"></path>
<path d="M1016.98 546L1015.98 566.503" id="Line 79" stroke="#E957C4"></path>
<path d="M992.476 570.502L991.476 591.502" id="Line 72" stroke="#E957C4"></path>
<path d="M998.476 570.502L997.476 592.025" id="Line 73" stroke="#E957C4"></path>
<path d="M1004.48 570.502L1003.48 592.025" id="Line 74" stroke="#E957C4"></path>
<path d="M952.476 569.502L951.476 590.025" id="Line 65" stroke="#E957C4"></path>
</g>
</g>
<g id="STAIRS_2">
<mask fill="white" id="path-24-inside-1_125_1927">
<path d="M703.976 816.104L847.124 793L851.263 818.648L708.116 841.752L703.976 816.104Z"></path>
</mask>
<path d="M703.976 816.104L847.124 793L851.263 818.648L708.116 841.752L703.976 816.104Z" fill="#FBF4BC" fill-opacity="0.5"></path>
<path d="M703.976 816.104L704.135 817.091L847.283 793.987L847.124 793L846.964 792.013L703.817 815.116L703.976 816.104ZM851.263 818.648L851.104 817.661L707.956 840.765L708.116 841.752L708.275 842.739L851.423 819.635L851.263 818.648Z" fill="#E957C4" mask="url(#path-24-inside-1_125_1927)"></path>
</g>
<g id="STAIRS_STEPS">
<g id="STAIRS_BOTTOM">
<line id="Line 88" stroke="#E957C4" x1="830.47" x2="834.47" y1="796.921" y2="821.921"></line>
<line id="Line 91" stroke="#E957C4" x1="823.47" x2="827.47" y1="797.921" y2="822.921"></line>
<line id="Line 92" stroke="#E957C4" x1="816.47" x2="820.47" y1="798.921" y2="823.921"></line>
<line id="Line 93" stroke="#E957C4" x1="809.47" x2="813.47" y1="799.921" y2="824.921"></line>
<line id="Line 94" stroke="#E957C4" x1="802.47" x2="806.47" y1="800.921" y2="825.921"></line>
<line id="Line 95" stroke="#E957C4" x1="795.47" x2="799.47" y1="801.921" y2="826.921"></line>
<line id="Line 96" stroke="#E957C4" x1="788.47" x2="792.47" y1="802.921" y2="827.921"></line>
<line id="Line 89" stroke="#E957C4" x1="837.47" x2="841.47" y1="794.921" y2="819.921"></line>
<line id="Line 90" stroke="#E957C4" x1="844.47" x2="848.47" y1="793.921" y2="818.921"></line>
</g>
<g id="STAIRS_TOP">
<line id="Line 88_2" stroke="#E957C4" x1="752.47" x2="756.47" y1="808.921" y2="833.921"></line>
<line id="Line 91_2" stroke="#E957C4" x1="745.47" x2="749.47" y1="809.921" y2="834.921"></line>
<line id="Line 92_2" stroke="#E957C4" x1="738.47" x2="742.47" y1="810.921" y2="835.921"></line>
<line id="Line 93_2" stroke="#E957C4" x1="731.47" x2="735.47" y1="811.921" y2="836.921"></line>
<line id="Line 94_2" stroke="#E957C4" x1="724.47" x2="728.47" y1="812.921" y2="837.921"></line>
<line id="Line 95_2" stroke="#E957C4" x1="717.47" x2="721.47" y1="813.921" y2="838.921"></line>
<line id="Line 96_2" stroke="#E957C4" x1="710.47" x2="714.47" y1="814.921" y2="839.921"></line>
<line id="Line 89_2" stroke="#E957C4" x1="759.47" x2="763.47" y1="807.921" y2="832.921"></line>
<line id="Line 90_2" stroke="#E957C4" x1="766.47" x2="770.47" y1="805.921" y2="830.921"></line>
</g>
</g>
</g>
<path d="M792.476 585.5L935 589L935.562 567.5L936.476 532.5V529H904V528H879V529H792.476V585.5Z" fill="#FFA1A1" id="TOP_"></path>
<g id="ORGA_CHECKIN">
<g id="TABLE_ORGA">
<rect fill="#199BA4" height="8" id="TABLE_ORGA_2" stroke="#08777D" transform="rotate(-90 862.5 584.5)" width="52" x="862.5" y="584.5"></rect>
</g>
<g id="REGISTRATION">
<path d="M864 536.351H868.364V538.153C868.364 538.48 868.305 538.762 868.187 538.999C868.07 539.238 867.903 539.422 867.684 539.551C867.467 539.68 867.209 539.745 866.91 539.745C866.608 539.745 866.351 539.679 866.139 539.547C865.929 539.415 865.768 539.227 865.658 538.984C865.548 538.741 865.494 538.454 865.494 538.121V536.981H866.325V537.925C866.325 538.084 866.345 538.217 866.386 538.324C866.429 538.432 866.493 538.513 866.578 538.569C866.665 538.624 866.776 538.652 866.91 538.652C867.045 538.652 867.157 538.624 867.245 538.569C867.334 538.513 867.401 538.432 867.445 538.324C867.491 538.216 867.513 538.083 867.513 537.925V537.405H864V536.351ZM865.994 538.807L864 539.894V538.744L865.994 537.678V538.807Z" fill="white"></path>
<path d="M864 540.323H868.364V543.366H867.507V541.378H866.612V543.21H865.754V541.378H864.857V543.366H864V540.323Z" fill="white"></path>
<path d="M866.938 546.89C867.028 546.866 867.107 546.831 867.175 546.784C867.244 546.737 867.303 546.679 867.352 546.611C867.4 546.543 867.436 546.465 867.46 546.377C867.486 546.289 867.499 546.192 867.499 546.087C867.499 545.875 867.447 545.692 867.345 545.537C867.243 545.384 867.094 545.265 866.898 545.181C866.703 545.098 866.467 545.056 866.188 545.056C865.908 545.056 865.67 545.096 865.472 545.177C865.275 545.258 865.124 545.375 865.021 545.529C864.917 545.682 864.865 545.868 864.865 546.087C864.865 546.28 864.896 546.443 864.959 546.577C865.023 546.712 865.113 546.814 865.229 546.884C865.346 546.953 865.483 546.988 865.641 546.988L865.617 547.184V546.123H866.386V548.005H865.809C865.418 548.005 865.084 547.921 864.805 547.755C864.527 547.59 864.313 547.363 864.164 547.073C864.015 546.785 863.94 546.453 863.94 546.078C863.94 545.662 864.031 545.296 864.211 544.981C864.391 544.666 864.648 544.42 864.982 544.244C865.317 544.068 865.715 543.98 866.175 543.98C866.533 543.98 866.851 544.033 867.128 544.139C867.406 544.246 867.642 544.394 867.835 544.585C868.028 544.777 868.175 544.998 868.274 545.25C868.374 545.502 868.423 545.774 868.423 546.066C868.423 546.318 868.387 546.554 868.315 546.771C868.242 546.99 868.14 547.183 868.008 547.35C867.876 547.519 867.719 547.657 867.537 547.762C867.355 547.867 867.156 547.932 866.938 547.958V546.89Z" fill="white"></path>
<path d="M868.364 549.681H864V548.626H868.364V549.681Z" fill="white"></path>
<path d="M867.055 552.702C867.212 552.687 867.333 552.624 867.42 552.512C867.508 552.401 867.552 552.243 867.552 552.037C867.552 551.9 867.534 551.787 867.499 551.696C867.463 551.605 867.414 551.537 867.352 551.491C867.29 551.446 867.22 551.423 867.141 551.421C867.075 551.418 867.018 551.431 866.968 551.459C866.918 551.489 866.874 551.532 866.836 551.587C866.799 551.644 866.766 551.712 866.738 551.792C866.709 551.871 866.685 551.961 866.663 552.06L866.578 552.435C866.531 552.651 866.469 552.842 866.391 553.006C866.312 553.173 866.219 553.312 866.111 553.424C866.004 553.538 865.879 553.623 865.739 553.682C865.598 553.74 865.44 553.77 865.266 553.771C864.99 553.77 864.754 553.7 864.556 553.562C864.359 553.425 864.207 553.226 864.102 552.968C863.997 552.711 863.945 552.4 863.945 552.037C863.945 551.672 863.999 551.354 864.109 551.082C864.218 550.811 864.384 550.6 864.607 550.449C864.83 550.299 865.112 550.222 865.453 550.217V551.227C865.312 551.236 865.195 551.273 865.102 551.34C865.008 551.407 864.937 551.498 864.888 551.615C864.84 551.733 864.816 551.869 864.816 552.024C864.816 552.166 864.835 552.287 864.874 552.386C864.912 552.487 864.965 552.565 865.033 552.619C865.102 552.673 865.18 552.7 865.268 552.702C865.35 552.7 865.42 552.675 865.479 552.625C865.538 552.575 865.589 552.498 865.632 552.395C865.676 552.293 865.717 552.162 865.754 552.003L865.86 551.547C865.947 551.169 866.087 550.871 866.28 550.654C866.474 550.437 866.737 550.329 867.068 550.33C867.338 550.329 867.575 550.401 867.778 550.548C867.981 550.694 868.139 550.896 868.253 551.155C868.366 551.413 868.423 551.708 868.423 552.039C868.423 552.377 868.366 552.67 868.251 552.919C868.137 553.169 867.977 553.363 867.771 553.501C867.565 553.638 867.327 553.709 867.055 553.712V552.702Z" fill="white"></path>
<path d="M867.507 554.161H868.364V557.849H867.507V556.526H864V555.486H867.507V554.161Z" fill="white"></path>
<path d="M864 558.364H868.364V560.167C868.364 560.494 868.305 560.776 868.187 561.013C868.07 561.252 867.903 561.435 867.684 561.565C867.467 561.694 867.209 561.759 866.91 561.759C866.608 561.759 866.351 561.693 866.139 561.56C865.929 561.428 865.768 561.241 865.658 560.998C865.548 560.755 865.494 560.467 865.494 560.135V558.995H866.325V559.939C866.325 560.098 866.345 560.231 866.386 560.337C866.429 560.445 866.493 560.527 866.578 560.582C866.665 560.638 866.776 560.666 866.91 560.666C867.045 560.666 867.157 560.638 867.245 560.582C867.334 560.527 867.401 560.445 867.445 560.337C867.491 560.229 867.513 560.097 867.513 559.939V559.419H864V558.364ZM865.994 560.821L864 561.908V560.757L865.994 559.692V560.821Z" fill="white"></path>
<path d="M864 563.281V562.147L868.364 563.62V565.024L864 566.496V565.363L867.264 564.338V564.304L864 563.281ZM865.717 563.13V565.499H864.916V563.13H865.717Z" fill="white"></path>
<path d="M867.507 566.278H868.364V569.967H867.507V568.643H864V567.604H867.507V566.278Z" fill="white"></path>
<path d="M868.364 571.536H864V570.482H868.364V571.536Z" fill="white"></path>
<path d="M866.182 576.317C865.702 576.317 865.295 576.225 864.961 576.04C864.627 575.855 864.374 575.605 864.2 575.29C864.027 574.976 863.94 574.624 863.94 574.233C863.94 573.841 864.028 573.488 864.202 573.174C864.377 572.86 864.631 572.611 864.963 572.426C865.297 572.243 865.703 572.152 866.182 572.152C866.662 572.152 867.069 572.243 867.403 572.426C867.736 572.611 867.99 572.86 868.163 573.174C868.337 573.488 868.423 573.841 868.423 574.233C868.423 574.624 868.337 574.976 868.163 575.29C867.99 575.605 867.736 575.855 867.403 576.04C867.069 576.225 866.662 576.317 866.182 576.317ZM866.182 575.239C866.466 575.239 866.706 575.198 866.902 575.117C867.098 575.038 867.246 574.923 867.347 574.772C867.448 574.623 867.499 574.443 867.499 574.233C867.499 574.024 867.448 573.845 867.347 573.694C867.246 573.544 867.098 573.428 866.902 573.347C866.706 573.267 866.466 573.228 866.182 573.228C865.898 573.228 865.658 573.267 865.462 573.347C865.266 573.428 865.117 573.544 865.016 573.694C864.915 573.845 864.865 574.024 864.865 574.233C864.865 574.443 864.915 574.623 865.016 574.772C865.117 574.923 865.266 575.038 865.462 575.117C865.658 575.198 865.898 575.239 866.182 575.239Z" fill="white"></path>
<path d="M868.364 580.647H864V579.752L866.518 578.015V577.987H864V576.933H868.364V577.84L865.849 579.558V579.594H868.364V580.647Z" fill="white"></path>
</g>
</g>
<g id="🧱 WALLS">
<path d="M691.976 764L700.976 662L705 623L714.314 528H783.332L781 625L779.976 664L776.976 774L760.976 773V776L741.476 774.5L740.976 785L696.976 782L697.476 772H691.976V764Z" fill="#777777" id="WALL_LOUNG_MAINSTAGE"></path>
</g>
<g id="ICON-ENTER">
<g id="ICON_BG_MASTER">
<rect fill="#D23520" height="27.2627" id="BG" rx="3" width="27.2627" x="829" y="545"></rect>
<path d="M843.177 545H853.263C854.92 545 856.263 546.343 856.263 548V569.263C856.263 570.92 854.92 572.263 853.263 572.263H843.177V545Z" fill="black" fill-opacity="0.2" id="SHADOW"></path>
</g>
<path d="M840.622 563.675V560.812H833.907V556.996H840.622V554.133L845.418 558.904L840.622 563.675ZM840.622 549.362H849.255C849.764 549.362 850.252 549.563 850.612 549.921C850.971 550.279 851.174 550.764 851.174 551.27V566.538C851.174 567.044 850.971 567.529 850.612 567.887C850.252 568.245 849.764 568.446 849.255 568.446H840.622C840.113 568.446 839.625 568.245 839.265 567.887C838.906 567.529 838.703 567.044 838.703 566.538V564.629H840.622V566.538H849.255V551.27H840.622V553.179H838.703V551.27C838.703 550.764 838.906 550.279 839.265 549.921C839.625 549.563 840.113 549.362 840.622 549.362Z" fill="white" id="ICON"></path>
</g>
<path d="M532.41 529H714.5L692 764L522 748L523 744H512.5L532.41 529Z" fill="#0AD2BB" id="SHOP"></path>
<path d="M1115.5 244L1125 528H532.5L512.5 744H517V755L468 750.5L465.5 750L270 706.5L173 491H152L124 426H144L30 167L542 248L1115.5 244Z" fill="#FFFAD2" id="FLOOR"></path>
<g id="WALS">
<path d="M542 247.5H846L1115.5 243L1118.5 356.5L992 361C986.5 283.5 965 257.5 930 254.5H542V247.5Z" fill="#777777" id="Vector 353"></path>
<path d="M1125 535L1133 785H1118V788H1058V785H1042V776L1048 535H1021V528H1121L1125 528V535Z" fill="#777777" id="Vector 346"></path>
<path d="M468 750.5L465.5 750V759.5L522 764.5H522.5V747.5L531 655H525.5H520.5L512.5 744H517V755L468 750.5Z" fill="#777777" id="Vector 348"></path>
<path d="M468 750.5L465.5 750V759.5L522 764.5H522.5V747.5L531 655H525.5H520.5L512.5 744H517V755L468 750.5Z" fill="#777777" id="Vector 352"></path>
<path d="M532.5 528L524 621.5H534L542.688 528H532.5Z" fill="#777777" id="Vector 347"></path>
<path d="M893 515V577H926" id="Vector 349" stroke="#83E394" stroke-width="10"></path>
<path d="M904 528H1021V529H904V528Z" fill="#777777" id="Vector 350"></path>
<path d="M534 528H879V529H534V528Z" fill="#777777" id="Vector 351"></path>
<path d="M8.5 162L30 166L145 427H124.5L8.5 162Z" fill="#777777" id="Vector 355"></path>
<path d="M149 485L171.5 486.5L271 706H250.128L149 485Z" fill="#777777" id="Vector 359"></path>
<path d="M496 240.5L542 247.5V254.5L496 247.5V240.5Z" fill="#777777" id="Vector 357"></path>
<path d="M33 173L30 166L331 217V224L33 173Z" fill="#777777" id="Vector 358"></path>
</g>
<g id="ICON-S-BAHN">
<g id="WIKI_ICON">
<path clip-rule="evenodd" d="M452 426.5C452 412.986 441.014 402 427.5 402C413.986 402 403 412.986 403 426.5C403 440.014 413.986 451 427.5 451C441.014 451 452 440.014 452 426.5Z" fill="#008D4F" fill-rule="evenodd" id="Vector"></path>
<path clip-rule="evenodd" d="M443.582 433.017C443.582 438.956 437.819 445.865 428.117 445.865C422.708 445.865 416.465 443.434 413.055 440.377V432.664C416.289 437.319 422.178 440.906 428.117 440.906C431.753 440.906 434.673 438.828 434.673 436.604C434.673 428.235 412.741 433.409 412.741 418.974C412.741 411.398 420.14 407.321 426.784 407.321C432.321 407.321 437.28 409.134 441.23 412.192V418.621C437.819 414.936 432.684 411.702 426.657 411.702C423.247 411.702 421.296 413.515 421.296 415.642C421.296 424.599 443.582 418.307 443.582 433.017Z" fill="white" fill-rule="evenodd" id="Vector_2"></path>
</g>
</g>
<g clip-path="url(#clip0_125_1927)" id="U-Bahn 1">
<g id="Group">
<path d="M324 687H279V732H324V687Z" fill="#004F8D" id="Vector_3"></path>
<path d="M316.647 690.546H307.647V714.054C307.647 718.347 306.126 721.398 301.455 721.398C296.748 721.398 295.218 718.347 295.218 714.054V690.546H286.353V714.927C286.353 725.133 294.57 728.877 301.446 728.877C308.286 728.877 316.638 725.142 316.638 714.927L316.647 690.546Z" fill="white" id="Vector_4"></path>
</g>
</g>
<g id="FLAG_mindbox">
<path d="M904.162 485.934L904 528H905.724V521.688C905.724 521.688 910.896 518.48 919.946 518.894L917.845 504.044L917.414 495.92C917.414 495.92 917.145 476.997 920 476C903.677 476.362 904.162 485.934 904.162 485.934Z" fill="white" id="Vector 43"></path>
<path d="M920.165 476.472C920.024 476.521 919.787 476.742 919.527 477.341C919.282 477.906 919.067 478.687 918.882 479.63C918.512 481.511 918.28 483.943 918.136 486.364C917.992 488.781 917.936 491.168 917.917 492.953C917.907 493.845 917.906 494.586 917.908 495.104C917.909 495.362 917.911 495.565 917.912 495.703C917.913 495.772 917.913 495.825 917.913 495.86C917.913 495.878 917.914 495.892 917.914 495.9C917.914 495.905 917.914 495.908 917.914 495.91L918.344 504.002L920.525 519.421L919.923 519.393C915.462 519.189 911.964 519.878 909.589 520.613C908.401 520.981 907.493 521.36 906.886 521.646C906.596 521.782 906.374 521.896 906.224 521.978V528.5H903.498L903.661 485.933C903.661 485.928 903.661 485.923 903.661 485.918C903.661 485.895 903.66 485.863 903.66 485.823C903.661 485.743 903.664 485.63 903.674 485.487C903.694 485.202 903.742 484.8 903.854 484.32C904.077 483.36 904.554 482.081 905.566 480.794C907.605 478.204 911.729 475.683 919.989 475.5L920.165 476.472ZM918.804 476.546C911.564 476.93 908.06 479.243 906.353 481.412C905.446 482.563 905.024 483.701 904.828 484.546C904.73 484.969 904.689 485.318 904.672 485.558C904.663 485.677 904.661 485.77 904.66 485.83C904.66 485.86 904.66 485.882 904.66 485.896L904.662 485.923L904.661 485.937L904.502 527.5H905.224V521.409L905.46 521.263L905.461 521.262L905.467 521.259C905.47 521.257 905.475 521.254 905.481 521.25C905.493 521.243 905.51 521.233 905.532 521.22C905.576 521.194 905.64 521.157 905.724 521.111C905.891 521.02 906.138 520.892 906.461 520.74C907.106 520.437 908.057 520.04 909.293 519.657C911.657 518.926 915.063 518.248 919.367 518.373L917.35 504.114L917.347 504.092L917.346 504.07L916.915 495.947L916.914 495.938V495.928V495.913C916.914 495.904 916.913 495.89 916.913 495.872C916.913 495.836 916.913 495.782 916.912 495.712C916.911 495.572 916.909 495.368 916.908 495.107C916.906 494.586 916.907 493.84 916.917 492.942C916.936 491.148 916.992 488.743 917.138 486.305C917.283 483.87 917.518 481.384 917.9 479.437C918.091 478.465 918.324 477.604 918.61 476.943C918.669 476.808 918.734 476.674 918.804 476.546Z" fill="black" id="Vector 43 (Stroke)"></path>
<path d="M904.162 485.934L904 528H905.724V521.688C905.724 521.688 910.896 518.48 919.946 518.894L917.845 504.044L917.414 495.92C917.414 495.92 917.145 476.997 920 476C903.677 476.362 904.162 485.934 904.162 485.934Z" fill="white" id="Vector 42"></path>
<g id="claim">
<g id="m">
<rect fill="#122E3A" height="4.3794" id="Rectangle 148" rx="0.583935" transform="rotate(-90 909.92 509.55)" width="1.16787" x="909.92" y="509.55"></rect>
<rect fill="#122E3A" height="4.3794" id="Rectangle 149" rx="0.583935" transform="rotate(-90 910.114 512.275)" width="1.16787" x="910.114" y="512.275"></rect>
<rect fill="#122E3A" height="5.06064" id="Rectangle 151" rx="0.583935" transform="rotate(-90 909.239 515)" width="1.16787" x="909.239" y="515"></rect>
<path d="M909.621 508.715C909.812 508.494 910.136 508.469 910.396 508.605V508.605C910.771 508.801 910.898 509.27 910.683 509.634C910.294 510.294 910.334 510.406 910.759 511.107C910.962 511.443 910.822 511.878 910.463 512.036V512.036C910.154 512.172 909.789 512.055 909.64 511.752C908.956 510.362 909.006 509.426 909.621 508.715Z" fill="#122E3A" id="Rectangle 147"></path>
<path d="M909.476 511.585C909.677 511.295 910.074 511.236 910.378 511.414V511.414C910.732 511.62 910.843 512.073 910.637 512.426C910.238 513.112 910.272 513.248 910.684 513.934C910.892 514.28 910.722 514.726 910.337 514.847V514.847C910.054 514.936 909.745 514.817 909.607 514.554C908.887 513.186 908.873 512.455 909.476 511.585Z" fill="#122E3A" id="Rectangle 150"></path>
</g>
<g id="i">
<rect fill="#122E3A" height="5.06064" id="Rectangle 138" rx="0.583935" transform="rotate(-90 909.336 507.507)" width="1.16787" x="909.336" y="507.507"></rect>
<ellipse cx="907.681" cy="506.971" fill="#122E3A" id="Ellipse 15" rx="0.729918" ry="0.68124" transform="rotate(-90 907.681 506.971)"></ellipse>
</g>
<g id="n">
<rect fill="#122E3A" height="5.06064" id="Rectangle 139" rx="0.583935" transform="rotate(-90 909.433 505.365)" width="1.16787" x="909.433" y="505.365"></rect>
<rect fill="#122E3A" height="5.06064" id="Rectangle 140" rx="0.583935" transform="rotate(-90 909.433 502.64)" width="1.16787" x="909.433" y="502.64"></rect>
<path d="M909.421 501.892C909.605 501.635 909.953 501.571 910.235 501.712V501.712C910.603 501.896 910.72 502.353 910.523 502.714C910.183 503.339 910.219 503.624 910.575 504.222C910.78 504.568 910.642 505.016 910.268 505.163V505.163C909.974 505.279 909.636 505.163 909.49 504.882C908.773 503.507 908.781 502.78 909.421 501.892Z" fill="#122E3A" id="Rectangle 152"></path>
</g>
<g id="d">
<path d="M909.643 497.24C909.799 496.965 910.147 496.9 910.43 497.041V497.041C910.797 497.225 910.914 497.682 910.718 498.043C910.417 498.595 910.41 498.882 910.659 499.355C910.901 499.817 910.742 500.392 910.26 500.593V500.593C910.102 500.659 909.92 500.686 909.773 500.597C909.009 500.136 908.98 498.406 909.643 497.24Z" fill="#122E3A" id="Rectangle 153"></path>
<path d="M914.076 496.907C913.923 496.698 913.636 496.68 913.404 496.796V496.796C913.003 496.996 912.913 497.512 913.139 497.899C913.46 498.45 913.462 498.895 913.107 499.401C912.865 499.747 912.887 500.239 913.238 500.473V500.473C913.441 500.609 913.712 500.626 913.883 500.452C914.681 499.639 914.734 497.808 914.076 496.907Z" fill="#122E3A" id="Rectangle 154"></path>
<rect fill="#122E3A" height="3.8928" id="Rectangle 141" rx="0.583935" transform="rotate(-90 909.822 500.694)" width="1.16787" x="909.822" y="500.694"></rect>
<rect fill="#122E3A" height="6.90972" id="Rectangle 142" rx="0.583935" transform="rotate(-90 907 497.775)" width="1.16787" x="907" y="497.775"></rect>
</g>
<g id="b">
<path d="M909.74 495.195C909.896 495.469 910.245 495.534 910.527 495.393V495.393C910.895 495.21 911.012 494.753 910.815 494.392C910.515 493.839 910.507 493.552 910.756 493.08C910.999 492.617 910.84 492.042 910.358 491.842V491.842C910.199 491.776 910.017 491.749 909.87 491.837C909.106 492.299 909.077 494.029 909.74 495.195Z" fill="#ED1C24" id="Rectangle 153_2"></path>
<path d="M914.174 495.527C914.021 495.736 913.733 495.755 913.502 495.639V495.639C913.1 495.438 913.011 494.922 913.237 494.535C913.557 493.985 913.56 493.539 913.205 493.033C912.962 492.687 912.984 492.195 913.336 491.961V491.961C913.539 491.825 913.809 491.808 913.98 491.983C914.778 492.796 914.831 494.627 914.174 495.527Z" fill="#ED1C24" id="Rectangle 154_2"></path>
<rect fill="#ED1C24" height="3.8928" id="Rectangle 141_2" rx="0.583935" transform="matrix(0 1 1 0 909.92 491.74)" width="1.16787"></rect>
<rect fill="#ED1C24" height="6.90972" id="Rectangle 142_2" rx="0.583935" transform="matrix(0 1 1 0 907.097 494.66)" width="1.16787"></rect>
</g>
<g id="o">
<rect fill="#122E3A" height="3.50352" id="Rectangle 145" rx="0.583935" transform="rotate(-90 910.017 491.059)" width="1.16787" x="910.017" y="491.059"></rect>
<rect fill="#122E3A" height="3.60084" id="Rectangle 146" rx="0.583935" transform="rotate(-90 909.92 487.848)" width="1.16787" x="909.92" y="487.848"></rect>
<path d="M913.702 490.843C913.531 490.998 913.275 490.971 913.09 490.833V490.833C912.743 490.573 912.791 490.03 913.027 489.666C913.337 489.188 913.368 488.583 912.979 487.986C912.746 487.629 912.754 487.119 913.106 486.877V486.877C913.285 486.754 913.523 486.723 913.684 486.869C914.527 487.632 914.721 489.921 913.702 490.843Z" fill="#122E3A" id="Rectangle 157"></path>
<path d="M909.836 490.892C910.007 491.047 910.262 491.02 910.447 490.882V490.882C910.794 490.622 910.747 490.078 910.511 489.714C910.211 489.252 910.172 488.671 910.522 488.093C910.76 487.699 910.754 487.149 910.374 486.89V486.89C910.182 486.759 909.925 486.726 909.758 486.887C908.942 487.675 908.814 489.971 909.836 490.892Z" fill="#122E3A" id="Rectangle 156"></path>
</g>
<g id="x">
<path d="M910.093 482.685C909.711 482.47 909.238 482.746 909.238 483.184V483.184C909.238 483.39 909.349 483.58 909.527 483.682L913.566 485.987C913.955 486.209 914.439 485.928 914.439 485.48V485.48C914.439 485.269 914.326 485.075 914.142 484.972L910.093 482.685Z" fill="#122E3A" id="Rectangle 155"></path>
<path d="M910.093 485.8C909.711 486.015 909.238 485.739 909.238 485.301V485.301C909.238 485.095 909.349 484.905 909.527 484.803L913.566 482.498C913.955 482.276 914.439 482.557 914.439 483.005V483.005C914.439 483.216 914.326 483.41 914.143 483.513L910.093 485.8Z" fill="#122E3A" id="Rectangle 156_2"></path>
</g>
</g>
</g>
<g id="claim_2">
<g id="m_2">
<rect fill="#122E3A" height="83.7057" id="Rectangle 148_2" rx="2" transform="rotate(-0.207191 804.369 90.7092)" width="22.3219" x="804.369" y="90.7092"></rect>
<rect fill="#122E3A" height="83.7057" id="Rectangle 149_2" rx="2" transform="rotate(-0.207191 752.301 94.6199)" width="22.3219" x="752.301" y="94.6199"></rect>
<rect fill="#122E3A" height="96.7265" id="Rectangle 151_2" rx="2" transform="rotate(-0.207191 700.155 78.0674)" width="22.3219" x="700.155" y="78.0674"></rect>
<path d="M825.852 90.5469C826.369 91.1533 826.46 92.018 826.094 92.7258L816.589 111.105C816.06 112.128 814.755 112.481 813.767 111.888C786.597 95.5782 792.077 96.7422 764.548 112.974C763.522 113.578 762.18 113.163 761.697 112.075L753.017 92.5416C752.602 91.6077 752.973 90.5013 753.862 89.9969C789.094 70.0012 810.276 72.2748 825.852 90.5469Z" fill="#122E3A" id="Rectangle 147_2"></path>
<path d="M773.333 88.4543C774.068 89.0738 774.256 90.1409 773.775 90.9734L762.68 110.152C762.121 111.117 760.859 111.426 759.902 110.853C732.674 94.547 737.243 95.97 709.891 112.111C708.79 112.761 707.356 112.225 706.967 111.007L700.688 91.3394C700.403 90.4446 700.796 89.4602 701.612 88.9934C736.731 68.8841 751.202 69.8166 773.333 88.4543Z" fill="#122E3A" id="Rectangle 150_2"></path>
</g>
<g id="i_2">
<rect fill="#122E3A" height="96.7265" id="Rectangle 138_2" rx="2" transform="rotate(-0.207191 843.379 79.405)" width="22.3219" x="843.379" y="79.405"></rect>
<ellipse cx="853.498" cy="47.7496" fill="#122E3A" id="Ellipse 15_2" rx="13.9512" ry="13.0209" transform="rotate(-0.207191 853.498 47.7496)"></ellipse>
</g>
<g id="n_2">
<rect fill="#122E3A" height="96.7265" id="Rectangle 139_2" rx="2" transform="rotate(-0.207191 884.315 81.1197)" width="22.3219" x="884.315" y="81.1197"></rect>
<rect fill="#122E3A" height="96.7265" id="Rectangle 140_2" rx="2" transform="rotate(-0.207191 936.4 80.9305)" width="22.3219" x="936.4" y="80.9305"></rect>
<path d="M957.552 85.996C958.251 86.585 958.46 87.5841 958.055 88.4026L948.653 107.378C948.125 108.444 946.775 108.807 945.77 108.171C921.268 92.6872 919.185 94.3085 895.776 109.516C894.718 110.203 893.289 109.756 892.823 108.584L884.977 88.8853C884.61 87.9636 884.993 86.9006 885.854 86.408C920.941 66.3352 935.398 67.3108 957.552 85.996Z" fill="#122E3A" id="Rectangle 152_2"></path>
</g>
<g id="d_2">
<path d="M1046.85 89.4168C1047.56 89.9895 1047.75 90.9801 1047.35 91.7986L1037.95 110.774C1037.42 111.84 1036.07 112.202 1035.06 111.567C1010.55 96.0745 1008.48 97.7063 985.03 112.938C983.985 113.616 982.573 113.19 982.09 112.042L973.879 92.5346C973.721 92.1576 973.679 91.7336 973.781 91.3374C979.023 70.902 1023.55 70.6682 1046.85 89.4168Z" fill="#122E3A" id="Rectangle 153_3"></path>
<path d="M1051.28 164.605C1051.75 164.022 1051.81 163.214 1051.47 162.542L1041.94 143.647C1041.35 142.484 1039.83 142.186 1038.83 143.023C1018.46 160.111 1006.61 160.925 988.585 142.138C987.686 141.2 986.141 141.321 985.425 142.404L974.56 158.83C974.145 159.456 974.111 160.266 974.512 160.901C988.289 182.707 1035.84 183.475 1051.28 164.605Z" fill="#122E3A" id="Rectangle 154_3"></path>
<rect fill="#122E3A" height="74.405" id="Rectangle 141_3" rx="2" transform="rotate(-0.207191 973.624 88.2353)" width="22.3219" x="973.624" y="88.2353"></rect>
<rect fill="#122E3A" height="132.069" id="Rectangle 142_3" rx="2" transform="rotate(-0.207191 1029.23 34.0903)" width="22.3219" x="1029.23" y="34.0903"></rect>
</g>
<g id="b_2">
<path d="M1071.56 91.1883C1070.85 91.7661 1070.66 92.7581 1071.07 93.5736L1080.61 112.481C1081.15 113.542 1082.5 113.895 1083.5 113.253C1107.9 97.5833 1109.98 99.2001 1133.54 114.261C1134.59 114.932 1136 114.496 1136.47 113.345L1144.54 93.7783C1144.7 93.4001 1144.74 92.9759 1144.63 92.5804C1139.24 72.1835 1094.71 72.2717 1071.56 91.1883Z" fill="#ED1C24" id="Rectangle 153_4"></path>
<path d="M1067.67 166.405C1067.19 165.826 1067.13 165.019 1067.46 164.345L1076.86 145.381C1077.44 144.214 1078.96 143.904 1079.96 144.734C1100.46 161.674 1112.31 162.403 1130.2 143.486C1131.09 142.542 1132.64 142.651 1133.36 143.73L1144.35 160.076C1144.76 160.699 1144.8 161.509 1144.41 162.147C1130.79 184.052 1083.25 185.164 1067.67 166.405Z" fill="#ED1C24" id="Rectangle 154_4"></path>
<rect fill="#ED1C24" height="74.405" id="Rectangle 141_4" rx="2" transform="matrix(-0.999994 0.00361616 0.00361616 0.999994 1144.77 89.4782)" width="22.3219"></rect>
<rect fill="#ED1C24" height="132.069" id="Rectangle 142_4" rx="2" transform="matrix(-0.999994 0.00361616 0.00361616 0.999994 1088.77 35.7356)" width="22.3219"></rect>
</g>
<g id="o_2">
<rect fill="#122E3A" height="66.9645" id="Rectangle 145_2" rx="2" transform="rotate(-0.207191 1157.79 91.2935)" width="22.3219" x="1157.79" y="91.2935"></rect>
<rect fill="#122E3A" height="68.8247" id="Rectangle 146_2" rx="2" transform="rotate(-0.207191 1219.17 89.2107)" width="22.3219" x="1219.17" y="89.2107"></rect>
<path d="M1158.64 156.922C1158.25 156.258 1158.32 155.423 1158.77 154.805L1171 138.349C1171.86 137.188 1173.64 137.299 1174.44 138.502C1185.91 155.689 1207.86 160.378 1226.92 138.657C1227.8 137.654 1229.4 137.709 1230.16 138.806L1241.11 154.619C1241.5 155.177 1241.58 155.892 1241.28 156.502C1230.89 177.762 1174.33 183.664 1158.64 156.922Z" fill="#122E3A" id="Rectangle 157_2"></path>
<path d="M1157.48 92.6283C1157.09 93.2951 1157.17 94.1285 1157.63 94.7431L1169.97 111.111C1170.85 112.265 1172.62 112.141 1173.42 110.932C1184.76 93.6647 1206.67 88.8166 1225.88 110.39C1226.77 111.389 1228.38 111.32 1229.13 110.212L1240.9 92.8177C1241.27 92.2577 1241.35 91.5436 1241.05 90.9389C1230.48 69.7944 1172.99 65.7317 1157.48 92.6283Z" fill="#122E3A" id="Rectangle 156_3"></path>
</g>
<g id="x_2">
<path d="M1325.34 78.7865C1326.09 77.4505 1325.12 75.804 1323.59 75.8096L1303.06 75.8838C1302.34 75.8864 1301.68 76.2738 1301.33 76.8987L1247.22 172.5C1246.47 173.836 1247.44 175.491 1248.97 175.485L1270.08 175.409C1270.8 175.406 1271.47 175.015 1271.82 174.386L1325.34 78.7865Z" fill="#122E3A" id="Rectangle 155_2"></path>
<path d="M1250.74 79.057C1249.98 77.7265 1250.94 76.073 1252.47 76.0675L1272.99 75.9933C1273.71 75.9907 1274.38 76.3732 1274.74 76.9956L1329.53 172.203C1330.3 173.534 1329.34 175.195 1327.81 175.201L1306.69 175.277C1305.97 175.28 1305.31 174.894 1304.95 174.267L1250.74 79.057Z" fill="#122E3A" id="Rectangle 156_4"></path>
</g>
</g>
</g>
</g>
<defs>
<clippath id="clip0_125_1927">
<rect fill="white" height="45" transform="translate(279 687)" width="45"></rect>
</clippath>
</defs>
</svg>